<?xml version="1.0" encoding="UTF-8" standalone="no"?>
<!-- Created with Inkscape (http://www.inkscape.org/) -->

<svg
   xmlns:osb="http://www.openswatchbook.org/uri/2009/osb"
   xmlns:dc="http://purl.org/dc/elements/1.1/"
   xmlns:cc="http://creativecommons.org/ns#"
   xmlns:rdf="http://www.w3.org/1999/02/22-rdf-syntax-ns#"
   xmlns:svg="http://www.w3.org/2000/svg"
   xmlns="http://www.w3.org/2000/svg"
   xmlns:xlink="http://www.w3.org/1999/xlink"
   xmlns:sodipodi="http://sodipodi.sourceforge.net/DTD/sodipodi-0.dtd"
   xmlns:inkscape="http://www.inkscape.org/namespaces/inkscape"
   width="146.69868mm"
   height="88.691963mm"
   viewBox="0 0 146.69868 88.691961"
   version="1.1"
   id="svg4794"
   sodipodi:docname="skate.svg"
   inkscape:export-filename="/media/felipe/809D-E1D7/Integrador/site/images/skate.png"
   inkscape:export-xdpi="141.73253"
   inkscape:export-ydpi="141.73253"
   inkscape:version="0.92.1 unknown">
  <defs
     id="defs4788">
    <linearGradient
       id="linearGradient8613"
       osb:paint="solid">
      <stop
         style="stop-color:#de0a0b;stop-opacity:1;"
         offset="0"
         id="stop8611" />
    </linearGradient>
    <linearGradient
       id="linearGradient8607"
       osb:paint="solid">
      <stop
         style="stop-color:#a7ba00;stop-opacity:1;"
         offset="0"
         id="stop8605" />
    </linearGradient>
    <linearGradient
       id="linearGradient7127"
       osb:paint="solid">
      <stop
         style="stop-color:#000000;stop-opacity:1;"
         offset="0"
         id="stop7125" />
    </linearGradient>
    <linearGradient
       id="linearGradient7121"
       osb:paint="solid">
      <stop
         style="stop-color:#000000;stop-opacity:1;"
         offset="0"
         id="stop7119" />
    </linearGradient>
    <linearGradient
       id="linearGradient7115"
       osb:paint="solid">
      <stop
         style="stop-color:#110400;stop-opacity:1;"
         offset="0"
         id="stop7113" />
    </linearGradient>
    <linearGradient
       id="linearGradient7109"
       osb:paint="solid">
      <stop
         style="stop-color:#48f622;stop-opacity:1;"
         offset="0"
         id="stop7107" />
    </linearGradient>
    <linearGradient
       id="linearGradient7103"
       osb:paint="solid">
      <stop
         style="stop-color:#110400;stop-opacity:1;"
         offset="0"
         id="stop7101" />
    </linearGradient>
    <linearGradient
       id="linearGradient7097"
       osb:paint="solid">
      <stop
         style="stop-color:#110400;stop-opacity:1;"
         offset="0"
         id="stop7095" />
    </linearGradient>
    <linearGradient
       id="linearGradient7091"
       osb:paint="solid">
      <stop
         style="stop-color:#000000;stop-opacity:1;"
         offset="0"
         id="stop7089" />
    </linearGradient>
    <linearGradient
       id="linearGradient7085"
       osb:paint="solid">
      <stop
         style="stop-color:#110400;stop-opacity:1;"
         offset="0"
         id="stop7083" />
    </linearGradient>
    <linearGradient
       id="linearGradient7079"
       osb:paint="solid">
      <stop
         style="stop-color:#efa996;stop-opacity:1;"
         offset="0"
         id="stop7077" />
    </linearGradient>
    <linearGradient
       id="linearGradient7073"
       osb:paint="solid">
      <stop
         style="stop-color:#a7ba00;stop-opacity:1;"
         offset="0"
         id="stop7071" />
    </linearGradient>
    <linearGradient
       id="linearGradient7067"
       osb:paint="solid">
      <stop
         style="stop-color:#0034ba;stop-opacity:1;"
         offset="0"
         id="stop7065" />
    </linearGradient>
    <linearGradient
       id="linearGradient7061"
       osb:paint="solid">
      <stop
         style="stop-color:#f35f36;stop-opacity:1;"
         offset="0"
         id="stop7059" />
    </linearGradient>
    <linearGradient
       id="linearGradient7055"
       osb:paint="solid">
      <stop
         style="stop-color:#000000;stop-opacity:1;"
         offset="0"
         id="stop7053" />
    </linearGradient>
    <linearGradient
       id="linearGradient7049"
       osb:paint="solid">
      <stop
         style="stop-color:#000000;stop-opacity:1;"
         offset="0"
         id="stop7047" />
    </linearGradient>
    <linearGradient
       id="linearGradient7043"
       osb:paint="solid">
      <stop
         style="stop-color:#fffcfc;stop-opacity:1;"
         offset="0"
         id="stop7041" />
    </linearGradient>
    <linearGradient
       id="linearGradient7037"
       osb:paint="solid">
      <stop
         style="stop-color:#545454;stop-opacity:1;"
         offset="0"
         id="stop7035" />
    </linearGradient>
    <linearGradient
       id="linearGradient7031"
       osb:paint="solid">
      <stop
         style="stop-color:#a7ba00;stop-opacity:1;"
         offset="0"
         id="stop7029" />
    </linearGradient>
    <linearGradient
       id="linearGradient5377"
       osb:paint="solid">
      <stop
         style="stop-color:#fffb49;stop-opacity:1;"
         offset="0"
         id="stop5375" />
    </linearGradient>
    <linearGradient
       id="linearGradient5343"
       osb:paint="solid">
      <stop
         style="stop-color:#95b33e;stop-opacity:1;"
         offset="0"
         id="stop5341" />
    </linearGradient>
    <linearGradient
       inkscape:collect="always"
       xlink:href="#linearGradient7049"
       id="linearGradient7045"
       x1="35.018818"
       y1="261.75348"
       x2="182.0686"
       y2="261.75348"
       gradientUnits="userSpaceOnUse"
       gradientTransform="translate(7.5595239,-147.41071)" />
    <linearGradient
       inkscape:collect="always"
       xlink:href="#linearGradient7085"
       id="linearGradient7123"
       x1="147.06596"
       y1="270.18875"
       x2="150.98865"
       y2="270.18875"
       gradientUnits="userSpaceOnUse"
       gradientTransform="translate(7.5595239,-147.41071)" />
    <linearGradient
       inkscape:collect="always"
       xlink:href="#linearGradient7085"
       id="linearGradient7129"
       x1="65.285561"
       y1="269.52441"
       x2="69.208221"
       y2="269.52441"
       gradientUnits="userSpaceOnUse"
       gradientTransform="translate(7.5595239,-147.41071)" />
    <linearGradient
       inkscape:collect="always"
       xlink:href="#linearGradient7127"
       id="linearGradient8609"
       x1="32.917725"
       y1="33.058537"
       x2="79.940155"
       y2="33.058537"
       gradientUnits="userSpaceOnUse"
       gradientTransform="translate(19.654762,50.459821)" />
    <linearGradient
       inkscape:collect="always"
       xlink:href="#linearGradient7127"
       id="linearGradient360"
       gradientUnits="userSpaceOnUse"
       x1="324.25977"
       y1="681.21521"
       x2="438.67383"
       y2="681.21521" />
    <linearGradient
       inkscape:collect="always"
       xlink:href="#linearGradient7127"
       id="linearGradient362"
       gradientUnits="userSpaceOnUse"
       x1="324.25977"
       y1="681.21521"
       x2="438.67383"
       y2="681.21521" />
    <linearGradient
       inkscape:collect="always"
       xlink:href="#linearGradient7127"
       id="linearGradient366"
       gradientUnits="userSpaceOnUse"
       x1="324.25977"
       y1="681.21521"
       x2="438.67383"
       y2="681.21521" />
    <linearGradient
       inkscape:collect="always"
       xlink:href="#linearGradient7127"
       id="linearGradient368"
       gradientUnits="userSpaceOnUse"
       x1="324.25977"
       y1="681.21521"
       x2="438.67383"
       y2="681.21521" />
    <linearGradient
       inkscape:collect="always"
       xlink:href="#linearGradient7127"
       id="linearGradient372"
       gradientUnits="userSpaceOnUse"
       x1="324.25977"
       y1="681.21521"
       x2="438.67383"
       y2="681.21521" />
    <linearGradient
       inkscape:collect="always"
       xlink:href="#linearGradient7127"
       id="linearGradient443"
       gradientUnits="userSpaceOnUse"
       x1="324.25977"
       y1="681.21521"
       x2="438.67383"
       y2="681.21521" />
    <linearGradient
       inkscape:collect="always"
       xlink:href="#linearGradient7127"
       id="linearGradient445"
       gradientUnits="userSpaceOnUse"
       x1="324.25977"
       y1="681.21521"
       x2="438.67383"
       y2="681.21521" />
    <linearGradient
       inkscape:collect="always"
       xlink:href="#linearGradient7127"
       id="linearGradient451"
       gradientUnits="userSpaceOnUse"
       x1="324.25977"
       y1="681.21521"
       x2="438.67383"
       y2="681.21521" />
    <linearGradient
       inkscape:collect="always"
       xlink:href="#linearGradient7127"
       id="linearGradient457"
       gradientUnits="userSpaceOnUse"
       x1="324.25977"
       y1="681.21521"
       x2="438.67383"
       y2="681.21521" />
    <linearGradient
       inkscape:collect="always"
       xlink:href="#linearGradient7127"
       id="linearGradient459"
       gradientUnits="userSpaceOnUse"
       x1="324.25977"
       y1="681.21521"
       x2="438.67383"
       y2="681.21521" />
    <linearGradient
       inkscape:collect="always"
       xlink:href="#linearGradient7127"
       id="linearGradient502"
       gradientUnits="userSpaceOnUse"
       x1="324.25977"
       y1="681.21521"
       x2="438.67383"
       y2="681.21521" />
    <linearGradient
       inkscape:collect="always"
       xlink:href="#linearGradient7127"
       id="linearGradient504"
       gradientUnits="userSpaceOnUse"
       x1="324.25977"
       y1="681.21521"
       x2="438.67383"
       y2="681.21521" />
  </defs>
  <sodipodi:namedview
     id="base"
     pagecolor="#ffffff"
     bordercolor="#666666"
     borderopacity="1.0"
     inkscape:pageopacity="0.0"
     inkscape:pageshadow="2"
     inkscape:zoom="0.7"
     inkscape:cx="390.36557"
     inkscape:cy="178.07306"
     inkscape:document-units="mm"
     inkscape:current-layer="layer1"
     showgrid="false"
     inkscape:window-width="1366"
     inkscape:window-height="703"
     inkscape:window-x="0"
     inkscape:window-y="0"
     inkscape:window-maximized="1"
     inkscape:snap-object-midpoints="false" />
  <metadata
     id="metadata4791">
    <rdf:RDF>
      <cc:Work
         rdf:about="">
        <dc:format>image/svg+xml</dc:format>
        <dc:type
           rdf:resource="http://purl.org/dc/dcmitype/StillImage" />
        <dc:title />
      </cc:Work>
    </rdf:RDF>
  </metadata>
  <g
     inkscape:label="Camada 1"
     inkscape:groupmode="layer"
     id="layer1"
     style="display:inline"
     transform="translate(-42.753981,-39.77246)">
    <path
       d="m 187.24374,105.31314 c -0.48154,0.36265 -1.01318,0.60819 -1.51906,0.94756 -0.51929,0.34854 -0.95956,0.80222 -1.45027,1.1871 -0.55739,0.43744 -1.15641,0.81703 -1.73743,1.22131 -0.51153,0.35631 -1.00048,0.92146 -1.59914,1.09432 -1.1938,0.34431 -2.11102,1.20156 -3.30377,1.60549 -1.27458,0.43109 -2.40876,1.24037 -3.71334,1.61749 -0.5715,0.1651 -1.131,0.36054 -1.70074,0.52881 -0.65828,0.19473 -1.3402,0.0963 -2.00025,0.28399 -1.35643,0.38523 -2.83598,0.27234 -4.24532,0.24588 -1.46615,-0.0275 -2.7933,-0.44132 -4.21499,-0.70485 -1.35785,-0.25153 -2.71604,-0.47025 -4.09787,-0.52352 -2.95557,-0.11324 -5.9376,0.0603 -8.8967,0.0603 -2.95663,3.4e-4 -5.88363,-0.3937 -8.84097,-0.45861 -3.06952,-0.067 -6.14044,0.0963 -9.21102,0.0603 -3.19194,-0.037 -6.38246,-0.15275 -9.57475,-0.17639 -6.4135,-0.0476 -12.84356,-0.0977 -19.25565,0.0385 -3.206398,0.0684 -6.409618,0.1524 -9.617078,0.15205 -1.5053,-3.5e-4 -2.9912,-0.19826 -4.49544,-0.20673 -1.5748,-0.009 -3.1496,0.012 -4.72476,0.0141 -1.45203,0.002 -2.90195,0.0183 -4.35328,0.0406 -0.64558,0.01 -1.25165,-0.15416 -1.88736,-0.18803 -0.62653,-0.0339 -1.25236,0.14958 -1.88559,0.14887 -1.44745,-0.002 -2.9016,-0.0568 -4.34834,-0.0187 -1.41711,0.0374 -2.80564,0.2099 -4.22981,0.20708 -1.45485,-0.003 -2.87584,0.005 -4.32223,-0.15205 -1.40723,-0.1524 -2.9584,-0.2159 -4.3173,-0.62688 -1.34302,-0.40604 -2.75378,-0.56303 -4.06611,-1.06539 -1.17299,-0.44873 -2.34245,-0.89217 -3.49744,-1.40264 -1.25271,-0.55421 -2.15371,-1.26929 -3.19511,-2.14348 -1.01565,-0.85231 -2.10996,-1.63547 -2.88819,-2.73261 -0.35948,-0.50659 -0.53164,-1.2439 -0.43427,-1.88913 0.15557,0.92569 0.85337,1.63583 1.52647,2.38302 0.49212,0.5468 0.81844,1.06256 1.47496,1.42063 0.31151,0.16969 0.64171,0.29704 0.95497,0.45861 0.35631,0.18345 0.62618,0.47096 0.97191,0.67134 0.74259,0.43004 1.63759,0.56409 2.39783,0.96379 0.25223,0.13264 0.50059,0.38029 0.77046,0.48083 0.38135,0.14182 0.87419,0.14535 1.27776,0.24942 0.41028,0.10548 0.82515,0.1785 1.23684,0.27658 0.46249,0.11042 0.84596,0.34748 1.28729,0.49741 0.46672,0.15875 1.15217,0.29704 1.63936,0.23248 0.0984,-0.0131 0.10019,-0.14287 0,-0.15451 -0.58456,-0.0674 -1.3769,-0.51647 -1.91347,-0.75071 -0.5909,-0.25789 -1.17757,-0.31856 -1.80481,-0.46214 -0.6671,-0.15276 -1.37901,-0.30057 -1.97838,-0.59584 -0.5648,-0.27799 -1.13347,-0.50624 -1.71979,-0.73625 -0.46426,-0.18168 -0.85231,-0.35066 -1.21885,-0.68545 -0.15204,-0.13864 -0.27164,-0.2981 -0.4445,-0.41522 -0.60607,-0.41063 -1.33314,-0.58173 -1.83973,-1.14018 -0.46638,-0.51399 -0.9518,-1.03716 -1.40476,-1.56245 -0.49566,-0.57432 -0.67522,-1.14159 -0.84773,-1.82739 0.40111,-0.31362 1.05128,-0.3556 1.54869,-0.43427 1.47074,-0.23318 3.02014,-0.27093 4.51168,-0.22154 1.49049,0.0494 2.86738,0.66675 4.33529,0.84878 0.80221,0.0998 1.5314,0.38982 2.30646,0.59373 0.68333,0.17956 1.36983,0.30127 2.05069,0.49882 0.6851,0.19827 1.36772,0.43992 2.0627,0.59796 0.73695,0.16792 1.49436,0.20991 2.23273,0.36654 0.28998,0.0617 0.57467,0.1464 0.86007,0.22895 0.006,0.0681 0.0413,0.13159 0.11818,0.16863 1.11901,0.53904 2.45039,0.35101 3.6583,0.36089 1.64007,0.013 3.29354,0.0977 4.93254,0.0441 1.61114,-0.0529 3.21522,-0.27094 4.82777,-0.3556 1.61642,-0.0843 3.18417,-0.22966 4.81012,-0.21096 0.74436,0.008 1.49966,0.0741 2.24296,0.012 0.79693,-0.0663 1.54623,-0.20461 2.35409,-0.20002 1.73919,0.0102 3.47874,0.007 5.21794,0.008 3.54047,0.002 7.08095,3.4e-4 10.621428,7.1e-4 3.39689,3.4e-4 6.79379,3.4e-4 10.19103,7.1e-4 1.60902,0 3.21839,0.007 4.82741,3.5e-4 0.73731,-0.003 1.48837,-0.0737 2.22427,-0.003 0.79022,0.0765 1.51588,0.23001 2.31704,0.21837 1.65523,-0.0243 3.31435,-0.0508 4.96958,-0.0159 0.79728,0.0169 1.57586,0.14006 2.36855,0.19932 0.79622,0.0593 1.5995,-0.008 2.39677,-0.0106 1.64324,-0.005 3.28648,-7.2e-4 4.92972,0.002 1.57092,0.003 3.13302,0.18838 4.7117,0.1912 3.804,0.007 7.58966,0.0752 11.39084,0.18345 3.429,0.0981 6.7056,1.18145 10.14801,1.08867 0.18521,-0.005 0.29598,-0.11359 0.33549,-0.24518 0.25823,-0.0318 0.51964,-0.0684 0.78987,-0.11218 1.35855,-0.22014 2.68428,-0.58526 4.03719,-0.84067 2.75025,-0.51964 5.44512,-1.34761 8.20596,-1.85667 1.44603,-0.26635 2.88713,-0.54504 4.32929,-0.8315 1.32009,-0.26211 2.65042,-0.26035 3.97263,-0.45332 1.13065,-0.1651 3.10056,0.0871 3.63149,1.30669 0.30127,0.69286 -0.49212,1.63336 -1.21073,2.40242 m -30.08101,10.44222 c -0.12523,0.6738 0.12453,1.13947 -0.55915,1.60725 -0.12912,0.0885 -0.26952,0.16157 -0.40957,0.23354 -0.17569,0.0261 -0.35419,0.0469 -0.5387,0.0533 -0.35348,0.0123 -0.60713,0.11254 -0.84243,0.24095 -0.11959,0.001 -0.22013,0.008 -0.28187,0.0268 -0.56762,0.17427 -1.04599,0.629 -1.50989,0.98284 -0.55174,0.42051 -0.94297,0.93627 -1.18569,1.53775 -0.0356,0.0148 -0.0706,0.0286 -0.10689,0.0448 -0.21202,0.0956 -0.73518,0.4505 -0.96026,0.16934 -0.0501,-0.0624 -0.0275,-0.23813 -0.0363,-0.31644 -0.0141,-0.12559 -0.0311,-0.24483 -0.0579,-0.3556 0.46108,-0.26988 0.99624,-0.34502 1.46579,-0.6096 0.39864,-0.22472 0.84738,-0.86854 1.32398,-0.88054 0.13617,-0.004 0.16933,-0.20461 0.0324,-0.24094 -0.55562,-0.14747 -0.98778,0.25541 -1.41534,0.54504 -0.50589,0.3429 -1.10243,0.46778 -1.61608,0.78246 -0.0677,-0.0667 -0.15346,-0.12312 -0.26599,-0.16581 -0.36477,-0.13899 -0.84455,0.079 -1.18216,-0.0783 -0.32632,-0.1524 0.25435,-0.67768 0.77399,-1.05939 0.36584,-0.0437 0.72708,-0.22825 1.0467,-0.37924 0.75706,-0.35736 1.54164,-0.48295 2.3054,-0.74083 0.007,0.0272 0.0124,0.0547 0.0201,0.0815 0.0303,0.1076 0.18203,0.10372 0.21449,0 0.0198,-0.0642 0.0363,-0.12559 0.0519,-0.18697 0.0222,-0.008 0.0444,-0.0159 0.0663,-0.0247 0.11818,-0.0483 0.21872,-0.1651 0.17251,-0.30374 -0.0155,-0.0462 -0.0311,-0.0928 -0.0466,-0.139 -0.0191,-0.0568 -0.0677,-0.0991 -0.12242,-0.1143 -0.0127,-0.30762 -0.11712,-0.5976 -0.3623,-0.90487 -0.16051,-0.20109 -0.32208,-0.37183 -0.51576,-0.46708 0.4699,-0.21908 0.9458,-0.41557 1.4418,-0.53834 0.0607,-0.0152 0.0646,-0.11465 0,-0.127 -1.31339,-0.25082 -2.49872,0.41875 -3.71545,0.84384 -0.82339,0.28752 -1.73249,0.66358 -2.45286,-0.0289 -0.45015,-0.4325 -0.6784,-1.01282 -1.06645,-1.49083 2.09373,0.0684 4.19452,0.0579 6.2872,0.0173 1.47073,-0.0286 2.95522,-0.0787 4.4316,-0.0318 -0.0667,0.29456 0.10371,0.38946 0.15275,0.68756 0.0804,0.49389 -0.44626,0.84102 -0.53693,1.32997 m 3.46569,4.11057 c 0.34184,0.48542 0.38665,1.1236 0.6223,1.66723 0.34466,0.79516 0.19474,1.52682 0.0152,2.34773 -0.32102,1.46615 -0.98989,2.70404 -2.40171,3.35174 -2.56046,1.17475 -5.71218,-0.22824 -6.55955,-2.90054 -0.24059,-0.75882 -0.15734,-1.36525 -0.11924,-2.13889 0.0198,-0.41028 0.009,-0.81562 0.0624,-1.21073 0.15452,-0.1076 0.29528,-0.21872 0.41275,-0.31856 0.14852,-0.12665 0.0328,-0.41733 -0.16545,-0.39899 -0.0187,0.001 -0.0356,0.005 -0.054,0.007 0.0342,-0.0769 0.073,-0.15346 0.11818,-0.22895 0.30198,-0.50553 0.90734,-0.94827 1.43228,-1.30987 0.34783,-10e-4 0.5528,-0.16933 0.93027,-0.30515 0.12806,-0.0462 0.25859,-0.073 0.39053,-0.0907 0.23001,0.0427 0.49071,0.0265 0.75635,-0.0328 0.20955,-0.002 0.41875,-0.009 0.62512,-0.0476 1.45309,-0.27305 3.06458,0.37324 3.93453,1.60867 m -12.01172,-3.46781 c 0.13723,0.0148 0.28152,0.0215 0.44238,0.01 1.20439,-0.0892 2.26025,-0.68968 3.33658,-1.20791 0.24024,0.16475 0.38241,0.52846 0.48542,0.76271 0.0822,0.18697 0.12312,0.39193 0.15663,0.59937 -0.25118,0.0194 -0.57573,0.0282 -0.66498,0.0459 -0.40323,0.079 -0.79023,0.19932 -1.16594,0.36442 -0.58137,0.25541 -1.00435,0.60219 -1.66158,0.49706 -0.63641,-0.1016 -0.84596,-0.53269 -0.92851,-1.07103 m -65.181218,-3.20353 c 0,0.68015 -0.15839,1.21673 -0.59301,1.74871 -0.14218,0.17357 -0.28752,0.33797 -0.39759,0.51471 -0.0617,-0.0639 -0.13758,-0.12736 -0.22048,-0.18944 -0.98249,-0.73731 -2.49308,-0.14323 -3.39972,-0.93098 -0.1711,-0.14888 -0.40217,-0.003 -0.36583,0.21201 0.10971,0.6537 0.84702,0.68192 1.40723,0.77753 0.35242,0.06 0.70696,0.0663 1.06045,0.11006 0.62583,0.078 0.85584,0.15205 1.10631,0.77329 0.0734,0.18204 0.3496,0.77364 0.0744,1.02129 -0.39299,0.35349 -2.05952,-0.20355 -2.44969,-0.45402 -0.42122,-0.27023 -0.74118,-0.64382 -1.17863,-0.90064 -0.17392,-0.10196 -0.42227,-0.18062 -0.64346,-0.28893 0.22683,-0.28751 0.2921,-0.56303 0.35277,-0.93063 0.0381,-0.23036 0.0381,-0.67909 0.12418,-1.00682 0.0236,-0.006 0.0462,-0.0159 0.0635,-0.0317 0.16298,-0.14782 0.18874,-0.23319 0.17286,-0.39441 0.15487,0.004 0.34008,0.005 0.49989,-3.4e-4 1.45203,-0.0437 2.6229,-0.0293 4.38679,-0.031 z m -6.13974,2.24437 c -0.0561,0.054 -0.121,0.10583 -0.19685,0.15451 -0.42862,0.27517 -0.87348,0.28328 -1.29928,0.0145 -0.84279,-0.53163 -1.13065,-1.66828 -1.76883,-2.41617 0.35631,0.004 0.71226,0.008 1.06786,0.005 0.68086,-0.006 1.35431,-0.17357 2.03024,-0.0924 0.24659,0.0296 0.48648,0.0554 0.72601,0.0769 -0.115,0.25153 -0.12947,0.54504 -0.15875,0.82867 -0.0483,0.46743 -0.0187,0.91123 -0.26458,1.26859 -0.043,-0.0624 -0.0755,-0.13229 -0.0903,-0.21343 -0.006,-0.0317 -0.0536,-0.0289 -0.0614,0 -0.0416,0.15769 -0.0303,0.27305 0.0159,0.3743 m 4.24074,3.3849 c -0.13088,0.0423 -0.27552,0.049 -0.42369,0.0437 -0.005,-0.008 -0.009,-0.0162 -0.0159,-0.0236 -0.19967,-0.21166 -0.47131,-0.22683 -0.74436,-0.26282 -0.33443,-0.0444 -0.55809,-0.26423 -0.86571,-0.37606 -0.17675,-0.0642 -0.3048,0.23178 -0.12947,0.30727 0.25964,0.11148 0.4512,0.33267 0.72883,0.40958 10e-4,7.1e-4 0.003,7.1e-4 0.004,10e-4 -0.2741,0.0963 -0.54962,0.26811 -0.68685,0.48965 -0.20885,-0.67451 -0.57221,-1.31621 -1.12113,-1.70109 -0.8322,-0.58385 -2.08174,-0.73307 -3.16301,-0.65899 -0.0677,-0.0296 -0.13193,-0.0593 -0.19685,-0.0857 0.0804,-0.10689 0.1397,-0.23425 0.16228,-0.39652 0.0603,-0.43357 -0.26141,-0.78423 -0.49883,-1.10914 -0.31221,-0.42721 -1.28128,-1.3282 -1.01071,-1.93251 0.0452,-0.10054 0.11783,-0.17674 0.20038,-0.24448 0.60572,1.028 1.06222,2.76155 2.40454,2.98627 0.51047,0.0857 1.06115,-0.1143 1.4478,-0.46073 0.53692,0.47131 1.09078,1.02094 1.66828,1.4358 0.62759,0.45085 1.78894,0.77682 2.66171,0.68016 -0.0783,0.34396 -0.031,0.77188 -0.42157,0.89817 m -2.6772,3.10793 c -0.0416,1.20368 -0.37818,2.76472 -1.2506,3.66148 -0.77858,0.80081 -2.28423,1.13912 -3.35809,1.14124 -1.16346,0.002 -2.43134,-1.06504 -2.98556,-2.05176 -0.55986,-0.99659 -0.74965,-2.45815 -0.65828,-3.58916 0.11254,-1.39417 0.85337,-2.69663 2.18757,-3.24379 0.33867,-0.13899 0.70062,-0.25576 1.06257,-0.35807 -0.0374,0.0836 -0.0674,0.17145 -0.0843,0.28011 -0.01,0.06 0.0586,0.0882 0.0952,0.0402 0.0871,-0.1136 0.19614,-0.20391 0.31221,-0.28469 0.0286,0.061 0.078,0.10971 0.15522,0.12065 1.12113,0.15733 2.78024,-0.0339 3.6763,0.80362 0.93274,0.87207 0.88794,2.31952 0.84772,3.48016 M 188.45704,101.58264 c -0.89958,-0.72213 -2.32233,-0.9906 -3.4544,-0.88476 -1.51235,0.14146 -3.05787,0.24553 -4.55224,0.55456 -3.35456,0.69286 -6.73064,1.25166 -10.05311,2.09621 -2.56787,0.65299 -5.18195,1.37583 -7.81579,1.79916 -0.47378,-0.0713 -0.94297,-0.1718 -1.42063,-0.2039 -0.8442,-0.0568 -1.64748,-0.10054 -2.48603,-0.26176 -0.68968,-0.13265 -1.36525,-0.34149 -2.05811,-0.45438 -0.71966,-0.11747 -1.46191,-0.10195 -2.18792,-0.18239 -3.29883,-0.36442 -6.68973,-0.27481 -10.00478,-0.27446 -1.65312,0 -3.31682,0.0529 -4.96887,-0.002 -0.73343,-0.0243 -1.4538,-0.17462 -2.18829,-0.19085 -0.8509,-0.0187 -1.70497,0.005 -2.55622,0.004 -1.54058,-0.002 -3.08645,0.0522 -4.62598,0.0279 -1.62736,-0.0254 -3.24414,-0.22507 -4.88174,-0.22507 -3.10444,3.4e-4 -6.15985,-0.19332 -9.26535,-0.19332 -3.32634,3.4e-4 -6.65267,7.1e-4 -9.97937,7.1e-4 -3.47451,3.5e-4 -6.949368,7.2e-4 -10.423878,7.2e-4 -1.73919,3.4e-4 -3.47838,0 -5.21793,0.003 -1.60091,0.002 -3.31647,-0.17851 -4.90255,0.0356 -1.79847,0.24306 -3.57999,0.15381 -5.39821,0.17427 -1.70215,0.0194 -3.40043,0.38911 -5.10187,0.39299 -0.89747,0.002 -1.77306,0.1965 -2.67159,0.21908 -0.71049,0.0176 -1.4224,0.009 -2.1336,0.007 -0.001,-0.0804 -0.0543,-0.16016 -0.16157,-0.1651 -0.3877,-0.0176 -0.70556,0.1524 -1.11619,0.13053 -0.23072,-0.0124 -0.41487,-0.0138 -0.63641,0.0254 -0.0201,0.004 -0.0406,0.0102 -0.0607,0.0148 -0.45967,0.002 -0.91934,0.007 -1.3783,0.0215 -0.12735,-0.0335 -0.25365,-0.0653 -0.37677,-0.084 -0.66287,-0.10089 -1.30281,-0.048 -1.96285,-0.23742 -0.80187,-0.22965 -1.56845,-0.43779 -2.39007,-0.58384 -1.54376,-0.27411 -2.98662,-0.89817 -4.51803,-1.21426 -0.66322,-0.1369 -1.29187,-0.36691 -1.94451,-0.54577 -0.81633,-0.22366 -1.65417,-0.27905 -2.4698,-0.51082 -2.75307,-0.78246 -5.76333,-0.86537 -8.56791,-0.22719 -0.87595,0.19967 -1.62313,0.64135 -1.73567,1.58574 -0.13299,1.11583 0.0963,2.07468 0.82268,2.93087 0.88336,1.04035 1.93675,1.83268 2.95099,2.72874 1.00294,0.88653 1.90359,1.5501 3.12914,2.10996 1.06644,0.48719 2.13607,0.97014 3.24661,1.32927 1.44709,0.46778 2.93088,0.73942 4.37974,1.19168 1.28975,0.40217 2.71603,0.51576 4.05941,0.64806 1.54764,0.15275 3.04659,0.20672 4.60304,0.20884 1.48908,0.002 2.939,-0.14464 4.41996,-0.20038 0.81985,-0.031 1.64218,-0.0215 2.46486,-0.008 -0.1898,0.29704 -0.25154,0.65864 -0.0949,1.07351 0.23636,0.62547 0.77928,1.06609 1.15816,1.59737 0.2787,0.39123 0.4244,0.71473 0.2466,1.10561 -0.50306,0.0991 -1.0594,0.30621 -1.50142,0.46708 -0.90418,0.32914 -1.82704,1.0862 -2.24085,1.97661 -0.83961,1.80587 -0.623,4.74874 0.6664,6.30273 0.61418,0.74083 1.65523,1.67534 2.64654,1.81116 1.24777,0.1711 2.3816,-0.23143 3.49708,-0.72461 2.18405,-0.9652 2.4892,-4.08164 2.37525,-6.16973 -0.008,-0.14781 -0.0247,-0.30162 -0.048,-0.45755 0.0829,0.0169 0.17851,-0.0134 0.23778,-0.0653 0.14992,-0.13053 0.13158,-0.30727 0.25646,-0.44415 0.11501,-0.12664 0.31715,-0.14076 0.47766,-0.15275 0.33832,-0.0254 0.68545,0.0275 1.02059,-0.0406 0.71261,-0.14464 1.03823,-0.95462 0.77611,-1.60443 0.0176,-0.006 0.0367,-0.01 0.054,-0.0155 0.13088,-0.0455 0.18909,-0.139 0.20567,-0.27058 0.0829,-0.64488 0.29634,-1.20509 0.0928,-1.71168 0.29669,-0.3429 0.70767,-0.64453 0.95003,-1.0407 0.3108,-0.50729 0.38171,-1.35043 0.38947,-1.70321 h -0.002 c 0,0 -2.7e-4,0.0413 -2.7e-4,0.0399 1.55717,-0.0102 3.12033,-0.0339 4.67643,0.0254 1.60761,0.061 3.18523,0.20567 4.79883,0.20603 6.769458,0.001 13.537848,-0.18733 20.308698,-0.18662 6.75288,3.4e-4 13.51563,0.28751 20.26603,0.1852 3.23391,-0.049 6.40115,-0.0441 9.62554,0.20709 0.87771,0.0681 1.75789,0.11641 2.63983,0.15063 0.001,0.007 0.002,0.0138 0.003,0.0201 0.009,0.0564 0.0462,0.0868 0.0903,0.0981 0.51047,0.99095 0.79974,2.16112 1.83303,2.47827 0.0127,0.73624 0.20038,1.57268 0.90241,1.85737 -0.32844,0.16828 -0.63183,0.33091 -0.78952,0.68686 -0.2727,0.6156 0.11007,1.01388 0.70802,1.10313 0.40993,0.0614 0.81774,-0.109 0.95921,0.35702 0.0952,0.31362 -7.9e-4,0.60818 0.26776,0.8703 0.3623,0.35348 0.83008,0.31997 1.27458,0.14076 -0.008,0.0533 -0.019,0.10477 -0.025,0.15945 -0.16546,1.46015 -0.20708,2.63807 0.42051,4.00932 0.56832,1.24143 1.55751,1.76742 2.71639,2.38302 1.07138,0.56903 1.97203,0.68368 3.20322,0.45755 1.16417,-0.21343 2.31493,-0.8121 3.03883,-1.7653 0.80257,-1.05692 1.08867,-2.54529 1.21567,-3.83928 0.054,-0.55069 -0.0254,-0.94051 -0.24659,-1.43898 -0.26564,-0.59796 -0.31045,-1.28482 -0.68792,-1.8348 -0.78387,-1.14265 -2.13078,-1.80869 -3.46392,-2.00166 -0.0663,-0.01 -0.13124,-0.013 -0.1958,-0.0173 0.12383,-0.14041 0.22014,-0.28857 0.27235,-0.44027 0.17533,-0.50941 -0.009,-0.99518 0.26529,-1.50354 0.14746,-0.2741 0.35454,-0.44661 0.40181,-0.77822 0.0624,-0.43815 -0.15804,-0.72884 -0.45402,-0.97826 1.49718,0.072 2.98344,0.25859 4.43547,0.68933 1.28764,0.38206 2.64725,0.50765 3.98851,0.50271 0.756,-0.003 1.51306,0.0215 2.26906,0.0141 0.68369,-0.007 1.18428,-0.18203 1.83692,-0.33373 0.62582,-0.14534 1.25236,-0.0501 1.87677,-0.24095 0.66711,-0.2039 1.36208,-0.40216 2.0193,-0.63182 1.34938,-0.47166 2.5908,-1.1998 3.92995,-1.67887 0.51646,-0.1845 0.9719,-0.47237 1.42557,-0.77611 0.33338,-0.22331 0.66781,-0.49883 1.05446,-0.62265 0.27022,-0.0868 0.53446,-0.0857 0.79304,-0.22155 0.52882,-0.27763 0.96132,-0.76447 1.44851,-1.10807 0.5849,-0.4124 1.18815,-0.8001 1.74695,-1.24813 0.51647,-0.41416 0.98037,-0.87877 1.53741,-1.24107 0.57891,-0.37677 1.12712,-0.71402 1.61678,-1.2058 0.0423,-0.0427 0.0713,-0.0875 0.09,-0.13264 0.0332,-0.0384 0.0667,-0.0762 0.0984,-0.11571 0.35101,-0.43498 0.87524,-0.85831 1.09714,-1.37689 0.39582,-0.92569 -0.14252,-1.87078 -0.86148,-2.44793"
       style="fill:url(#linearGradient7045);fill-opacity:1;fill-rule:nonzero;stroke:none;stroke-width:0.35277775;stroke-opacity:1"
       id="path11189"
       inkscape:connector-curvature="0" />
    <path
       d="m 76.160784,122.94616 c -0.18203,0.51224 -0.74401,0.41981 -1.16523,0.41522 -0.3048,-0.004 -0.62053,0.025 -0.88794,-0.14358 -0.37465,-0.23636 -0.70908,-0.80363 -0.68121,-1.25201 0.0236,-0.38241 0.32914,-0.71543 0.59513,-0.96343 0.29281,-0.27341 0.60184,-0.35066 0.94439,-0.42263 0.71649,0.16334 1.19698,0.44274 1.23261,1.3522 0.0113,0.28963 0.0603,0.73871 -0.0377,1.01423 m 0.58138,-1.01423 c -0.0187,-0.57715 -0.18063,-1.15253 -0.66499,-1.51624 -0.38664,-0.29069 -0.78176,-0.24871 -1.21285,-0.16687 -0.96696,-0.008 -1.98049,0.65441 -2.01824,1.71697 -0.0215,0.60325 0.28892,1.23614 0.7239,1.64501 0.4064,0.3817 0.89288,0.41486 1.42557,0.42404 0.50377,0.008 1.12466,0.0427 1.48731,-0.37924 0.37854,-0.44097 0.27694,-1.18639 0.2593,-1.72367"
       style="fill:url(#linearGradient7129);fill-opacity:1;fill-rule:nonzero;stroke:none;stroke-width:0.35277775"
       id="path11177"
       inkscape:connector-curvature="0" />
    <path
       d="m 157.94132,123.6105 c -0.18204,0.51223 -0.74402,0.4198 -1.16523,0.41521 -0.30481,-0.004 -0.62055,0.0251 -0.88795,-0.14358 -0.37466,-0.23636 -0.70909,-0.80362 -0.68122,-1.252 0.0236,-0.38241 0.32914,-0.71544 0.59514,-0.96344 0.29281,-0.2734 0.60184,-0.35066 0.94439,-0.42263 0.7165,0.16334 1.19698,0.44274 1.23261,1.3522 0.0113,0.28963 0.0603,0.73872 -0.0378,1.01424 m 0.58138,-1.01424 c -0.0187,-0.57714 -0.18062,-1.15253 -0.66498,-1.51624 -0.38665,-0.29069 -0.78177,-0.24871 -1.21286,-0.16686 -0.96697,-0.008 -1.98051,0.6544 -2.01826,1.71697 -0.0215,0.60325 0.28893,1.23613 0.72391,1.645 0.4064,0.3817 0.89289,0.41487 1.42558,0.42404 0.50377,0.008 1.12466,0.0427 1.48732,-0.37924 0.37853,-0.44097 0.27693,-1.18639 0.25929,-1.72367"
       style="fill:url(#linearGradient7123);fill-opacity:1;fill-rule:nonzero;stroke:none;stroke-width:0.35277775"
       id="path11177-8"
       inkscape:connector-curvature="0" />
    <path
       d="m 80.612674,87.265887 c -0.341274,-1.66267 -1.033731,-3.17276 -2.050283,-4.55218 -1.470287,-1.99496 -3.394202,-3.5753 -5.76542,-4.47938 -1.676654,-0.63941 -3.478835,-0.90256 -5.284178,-0.9918 0.807971,-0.22863 1.618685,-0.44762 2.432455,-0.65616 1.479243,-0.37899 2.988948,-0.76691 4.513513,-0.9324 0.407256,-0.0443 0.810819,-0.0784 1.153676,0.0245 0.392709,0.11787 0.78995,0.22122 1.182132,0.34031 1.302388,0.39514 2.550813,0.92713 3.701432,1.63821 1.625852,1.00479 2.874382,2.3698 3.840766,3.97064 0.994315,1.64684 1.750326,3.47378 1.959749,5.37941 0.07789,0.70895 0.0703,1.425413 -0.01434,2.133343 -0.05533,0.46387 -0.164314,1.10327 -0.345597,1.45983 -0.487458,0.95829 -1.355086,1.78156 -2.097395,2.55569 -1.180236,1.23089 -2.410744,2.44898 -3.699956,3.59023 0.04785,-0.18112 0.09148,-0.35778 0.134589,-0.52143 0.352448,-1.33475 0.549646,-2.71255 0.640709,-4.08557 0.10803,-1.62745 0.02677,-3.27205 -0.301858,-4.873203 M 62.076844,68.788237 c -0.01813,-0.24112 -0.05934,-0.47839 -0.104027,-0.71687 -0.02614,-0.1396 -0.03615,-0.27665 -0.04195,-0.41798 -8.37e-4,-0.0201 0.0046,-0.0408 0.0042,-0.0433 0.07157,-0.14772 0.287944,-0.25655 0.474392,-0.32742 0.710375,-0.26995 1.515714,-0.32082 2.270777,-0.34447 0.66031,-0.0208 1.359197,-0.0229 2.006123,0.12447 0.929914,0.21188 0.479977,1.19566 0.258116,1.83273 -0.477554,-0.0178 -0.955318,-0.0343 -1.432977,-0.0486 -1.144398,-0.0345 -2.289641,-0.0586 -3.434672,-0.0586 m 37.48451,8.09378 c -0.0318,-0.94825 -0.0897,-1.89771 -0.22186,-2.83824 -0.0781,-0.55534 -0.16031,-1.16754 -0.45047,-1.6643 -0.40387,-0.69159 -1.53721,-0.94378 -2.26118,-1.13281 -1.429293,-0.37311 -2.914013,-0.56012 -4.381663,-0.72966 -1.81894,-0.21006 -3.645261,-0.33402 -5.470421,-0.47819 -0.488092,-1.05647 -0.101708,-2.47386 0.01864,-3.54363 0.09075,-0.8059 -0.01643,-1.58612 -0.741359,-2.09202 -0.656624,-0.45839 -1.502538,-0.54854 -2.290486,-0.57433 -2.253583,-0.0737 -4.581802,0.16661 -6.698276,0.94053 -2.070205,0.75697 -3.759506,2.00593 -5.088244,3.70647 -0.171902,0.21991 -0.333264,0.44438 -0.48704,0.67241 -0.693405,-0.0985 -1.406097,-0.11026 -2.104668,-0.1462 -0.526775,-0.027 -1.053864,-0.0508 -1.581058,-0.0728 -0.0068,-0.0365 -0.01981,-0.0717 -0.03763,-0.10488 0.276558,-0.89291 0.514968,-1.95009 -0.598341,-2.38249 -0.709846,-0.27584 -1.575051,-0.25584 -2.32695,-0.24548 -0.907785,0.0125 -1.900202,0.0756 -2.746433,0.41838 -0.326625,0.13229 -0.651985,0.31574 -0.823571,0.62783 -0.254744,0.46336 -0.01644,1.04551 0.03858,1.54643 -0.736935,-10e-4 -1.536371,-0.0241 -2.242003,0.16 -1.821468,0.47514 -3.392409,1.81527 -4.517625,3.22373 -0.702998,0.87992 -1.284367,1.9171 -1.426336,3.03021 -0.235984,1.8506 -0.301752,3.73034 -0.387861,5.59139 -0.119625,2.58067 -0.194668,5.16691 -0.149137,7.750323 0.01792,1.01627 0.05238,2.03558 0.163682,3.04666 0.05902,0.53606 0.07947,1.40541 0.48198,1.8368 0.54448,0.58336 1.362465,0.97981 2.186774,0.99392 0.02582,5.8e-4 0.04985,-0.001 0.07304,-0.005 0.15662,0.60753 0.345069,1.20358 0.553544,1.77648 0.840435,2.30888 2.260025,4.49127 4.459447,5.79891 2.669597,1.58704 6.287555,1.5247 9.142126,0.44782 1.198573,-0.45219 2.276572,-1.12672 3.190783,-1.97242 2.327374,-2.30929 2.940677,-5.56591 2.940677,-5.56591 0,0 -0.758436,1.85862 -2.761503,4.30964 -1.952687,2.27852 -4.883986,3.25134 -7.890851,3.24474 -2.84382,-0.006 -5.298934,-1.34937 -6.878095,-3.60252 -1.28131,-1.82806 -1.979248,-4.01765 -2.307454,-6.18551 -0.209318,-1.38186 -0.13944,-2.75478 0.101287,-4.12933 0.353185,-2.017503 1.063454,-4.071663 2.421071,-5.676263 0.75559,-0.89321 1.705005,-1.59516 2.8005,-2.05822 1.33306,-0.56356 2.834227,-0.66894 4.269101,-0.56163 2.854463,0.2134 5.963356,1.12287 7.72991,3.43875 1.709222,2.53183 2.50244,4.871983 2.50244,4.871983 0,0 -0.188558,-1.115153 -0.302279,-1.667953 -0.172219,-0.83728 -0.439082,-1.65151 -0.822305,-2.42208 -1.114045,-2.23986 -3.284906,-3.65583 -5.702076,-4.36376 -2.45111,-0.71788 -5.284812,-0.95697 -7.717265,-0.0647 0.292581,-0.74641 0.428754,-1.53252 0.459741,-2.34848 0.02319,-0.60773 0.0097,-1.21718 -0.171692,-1.80369 -0.164314,-0.53098 -0.274875,-1.05992 -0.662735,-1.53343 0.228922,1.26226 0.08021,2.63488 0.07125,3.21631 -0.01602,1.04063 -0.233454,2.03679 -0.771505,2.94565 -0.0025,0.004 -0.0043,0.008 -0.0065,0.0124 -0.0839,0.0459 -0.167054,0.0933 -0.24958,0.14244 -2.002646,1.19424 -3.256869,3.21713 -3.986531,5.32519 -0.548169,1.58359 -0.83643,3.284133 -0.866257,4.953403 -0.01612,0.90256 0.09222,1.82613 0.282042,2.73428 -0.549961,-0.0389 -1.083058,-0.31565 -1.463435,-0.6855 -0.02941,-0.0287 -0.04817,-0.0575 -0.06556,-0.0908 0.0099,0.0172 -0.03584,-0.0895 -0.04374,-0.11249 -0.04574,-0.13219 -0.07799,-0.26864 -0.107295,-0.40499 -0.171691,-0.79778 -0.207948,-1.65496 -0.245574,-2.49294 -0.113302,-2.514683 -0.04806,-5.038993 0.04416,-7.553163 0.07873,-2.14847 0.17928,-4.3009 0.378269,-6.44247 0.01381,-0.14995 0.02888,-0.29991 0.04511,-0.44955 0.007,-0.0626 0.01423,-0.12519 0.02171,-0.18773 0.0023,-0.0194 0.01223,-0.0934 0.01697,-0.12934 0.05512,-0.36681 0.191401,-0.71585 0.348126,-1.05342 0.801121,-1.72684 2.337808,-3.20291 4.078753,-4.05623 0.924225,-0.45311 1.644402,-0.46529 2.666858,-0.48661 1.280887,-0.0267 2.563251,-5.7e-4 3.843612,0.0321 2.065781,0.0528 4.156537,0.0819 6.216414,0.27351 -1.02193,1.73151 -2.579798,5.43646 -2.579798,5.43646 0,0 2.298913,-3.68282 3.517934,-5.5256 0.989676,-1.49597 2.245692,-2.77072 3.862376,-3.63977 2.014975,-1.08317 4.323904,-1.46805 6.604904,-1.5377 0.870998,-0.0266 1.794593,-0.0697 2.637134,0.18132 0.18687,0.0555 0.358772,0.13838 0.508225,0.24844 -1.5213,0.39168 -2.713761,1.73344 -3.191838,3.14514 -0.545535,1.6111 0.324833,3.08047 1.404621,4.25471 0.557551,0.60621 1.169483,1.16358 1.715018,1.78034 0.528249,0.59728 0.877009,1.25739 1.11921,2.004 0.481032,1.48329 1.442463,5.76388 1.442463,5.76388 0,0 0.0046,-5.86144 -1.894404,-8.14392 -1.005065,-1.20815 -2.486208,-2.19477 -3.029738,-3.70567 -0.597389,-1.66024 0.636385,-3.48322 2.156314,-4.22496 0.225969,-0.11036 0.476288,-0.18336 0.728608,-0.21991 0.05649,0.30702 -0.0077,0.67596 -0.03805,0.9452 -0.101286,0.90043 -0.284993,1.73963 -0.195089,2.65214 0.07156,0.72692 0.320405,1.39079 0.852027,1.92237 0.695513,0.69535 1.747481,1.05698 2.639664,1.44593 1.174753,0.51209 3.657803,1.1786 3.657803,1.1786 0,0 -3.873022,-1.45069 -5.556948,-2.97387 2.474398,0.19066 4.953648,0.3662 7.399178,0.79149 1.073683,0.1868 2.347713,0.36864 3.265403,0.98286 0.13575,0.0909 0.18002,0.18772 0.23072,0.32011 0.10012,0.26102 0.15841,0.53717 0.21005,0.81017 0.3631,1.92593 0.32526,4.00892 0.30186,5.98195 -0.0316,2.66067 -0.18961,5.32296 -0.46849,7.97023 -0.23166,2.199743 -0.51054,4.444863 -1.16664,6.570593 -0.10381,0.33656 -0.2402,0.71707 -0.37036,0.99414 -0.0605,0.12903 -0.12806,0.25513 -0.20226,0.37726 -0.0328,0.0537 -0.068,0.10589 -0.10445,0.15716 -0.0717,0.10071 -0.006,0.0181 -0.10276,0.12224 -0.51318,0.54986 -1.394513,0.82174 -2.143883,1.02682 -0.11688,0.032 -0.23472,0.0617 -0.35234,0.0912 0.11857,-0.66814 0.12405,-1.37191 0.14903,-2.03598 0.0498,-1.32165 0.0393,-2.64574 0.005,-3.9676 -0.0355,-1.38074 -0.10361,-2.76158 -0.22334,-4.138163 -0.0876,-1.00692 -0.64197,-3.58322 -0.64197,-3.58322 0,0 0.83063,6.642683 -0.068,13.700903 -0.0122,0.0705 -0.0273,0.14041 -0.0439,0.21005 -2.08127,0.42245 -4.256662,0.51697 -6.363651,0.58631 -2.188357,0.072 -4.380821,0.0566 -6.568754,-0.0203 -0.01793,-5.7e-4 -0.03562,-0.001 -0.05354,-0.002 1.5877,-1.35505 3.088445,-2.8359 4.511936,-4.33827 0.723233,-0.76336 1.560295,-1.58602 2.02088,-2.53315 0.239461,-0.49239 0.320829,-1.0722 0.394184,-1.60602 0.09623,-0.6992 0.110351,-1.401963 0.0527,-2.104723 -0.150612,-1.83455 -0.800702,-3.59114 -1.672122,-5.21686 -0.91727,-1.7111 -2.108464,-3.22992 -3.70723,-4.39938 -1.19172,-0.87159 -2.527205,-1.52288 -3.930039,-2.01578 -0.483772,-0.17005 -0.976079,-0.31595 -1.470287,-0.45473 -0.343909,-0.0966 -0.673799,-0.20823 -1.034573,-0.2264 -0.654936,-0.0329 -1.330953,0.0942 -1.972292,0.20488 -0.918639,0.15848 -1.828108,0.36742 -2.732729,0.58712 -1.879648,0.45665 -6.136313,1.8374 -6.136313,1.8374 0,0 2.562515,0.085 5.20861,0.62904 1.908947,0.3925 3.829804,1.09414 5.0132,1.84319 1.448471,0.91677 2.621327,2.18736 3.582336,3.56505 0.968595,1.38866 1.502959,2.95722 1.77014,4.602233 0.335056,2.06228 0.233244,4.21258 -0.117623,6.26643 -0.134276,0.78712 -0.311977,1.57018 -0.554283,2.33335 -0.07525,0.23716 -1.453424,1.76968 -1.453424,1.76968 0,0 9.172902,0.15747 13.044344,-0.2599 1.19288,-0.12864 2.38934,-0.30153 3.54734,-0.6124 0.83854,-0.22508 1.720713,-0.5327 2.371963,-1.10987 0.49884,-0.44204 0.7539,-1.1118 0.96564,-1.71415 0.31482,-0.89596 0.51634,-1.82958 0.6933,-2.75854 0.47713,-2.50289 0.72619,-5.049753 0.89756,-7.587373 0.17064,-2.52482 0.25243,-5.06214 0.16727,-7.59183"
       style="fill:url(#linearGradient8609);fill-opacity:1;fill-rule:nonzero;stroke:none;stroke-width:0.103;stroke-miterlimit:4;stroke-dasharray:none;stroke-opacity:1"
       id="path14590"
       inkscape:connector-curvature="0" />
    <flowRoot
       xml:space="preserve"
       id="flowRoot6713"
       style="font-style:normal;font-weight:normal;font-size:40px;line-height:1.25;font-family:sans-serif;letter-spacing:0px;word-spacing:0px;fill:url(#linearGradient368);fill-opacity:1;stroke:none"
       transform="matrix(0.74346024,0,0,0.93641883,-151.55908,-560.50515)"
       inkscape:export-xdpi="141"
       inkscape:export-ydpi="141"><flowRegion
         id="flowRegion6715"
         style="fill:url(#linearGradient362);fill-opacity:1"><rect
           id="rect6717"
           width="202.0305"
           height="310.11682"
           x="324.25897"
           y="633.60583"
           style="fill:url(#linearGradient360);fill-opacity:1" /></flowRegion><flowPara
         id="flowPara6721"
         style="font-style:normal;font-variant:normal;font-weight:normal;font-stretch:normal;font-family:'Noto Serif';-inkscape-font-specification:'Noto Serif';fill:url(#linearGradient366);fill-opacity:1"><flowSpan
           id="flowSpan370"
           style="font-style:normal;font-variant:normal;font-weight:normal;font-stretch:normal;font-family:'Noto Serif';-inkscape-font-specification:'Noto Serif';fill:url(#linearGradient502);fill-opacity:1">SK8</flowSpan></flowPara></flowRoot>    <flowRoot
       xml:space="preserve"
       id="flowRoot6741"
       style="font-style:normal;font-weight:normal;font-size:40px;line-height:1.25;font-family:sans-serif;letter-spacing:0px;word-spacing:0px;fill:#000000;fill-opacity:1;stroke:none"
       transform="scale(0.26458333)"><flowRegion
         id="flowRegion6743"><rect
           id="rect6745"
           width="13.131983"
           height="83.842659"
           x="425.27423"
           y="724.51959" /></flowRegion><flowPara
         id="flowPara6747" /></flowRoot>    <flowRoot
       xml:space="preserve"
       id="flowRoot6713-6"
       style="font-style:normal;font-weight:normal;font-size:40px;line-height:1.25;font-family:sans-serif;letter-spacing:0px;word-spacing:0px;display:inline;fill:url(#linearGradient451);fill-opacity:1;stroke:none"
       transform="matrix(0.74346025,0,0,0.93641884,-141.10001,-529.96989)"
       inkscape:export-xdpi="141"
       inkscape:export-ydpi="141"><flowRegion
         id="flowRegion6715-2"
         style="fill:url(#linearGradient445);fill-opacity:1"><rect
           id="rect6717-9"
           width="202.0305"
           height="310.11682"
           x="324.25897"
           y="633.60583"
           style="fill:url(#linearGradient443);fill-opacity:1" /></flowRegion><flowPara
         id="flowPara6721-1"
         style="font-style:normal;font-variant:normal;font-weight:normal;font-stretch:normal;font-family:'Noto Serif';-inkscape-font-specification:'Noto Serif';fill:url(#linearGradient504);fill-opacity:1">MESH</flowPara></flowRoot>  </g>
</svg>
